<?xml version="1.0" encoding="utf-8"?>
<!DOCTYPE svg PUBLIC "-//W3C//DTD SVG 1.1//EN" "http://www.w3.org/Graphics/SVG/1.1/DTD/svg11.dtd">
<svg version="1.1" xmlns="http://www.w3.org/2000/svg" xmlns:xlink="http://www.w3.org/1999/xlink" x="0px" y="0px" width="680px"
	 height="400px" viewBox="-40 0 680 400" enable-background="new -40 0 680 400" xml:space="preserve">
<g id="Layer_1">
	<path fill="none" stroke="#FCC394" stroke-width="2" stroke-linecap="round" stroke-linejoin="round" stroke-miterlimit="10" d="
		M546.422,203.441l2.399,47.041l2.521-48.84l2.521,125.279 M504.063,160.842l2.521,43.44l2.52,73.2l2.521-102.84l2.399,80.76
		l2.521-21.119l2.521-110.521l2.399,72.36l2.521,37.44l2.521-155.641l2.521,56.16l2.399,158.52l2.521-34.08l2.521-113.04
		l2.399,76.081l2.521-36.601 M494.222,325.361l-2.52-217.319l-2.521,21.84l-2.52,144.601l-2.4-134.641l-2.521,44.4l-2.521-50.52
		l-2.399,21.36l-2.521,77.76l-2.521-75.84l-2.521,169.92l-2.399-119.279l-2.521,71.399 M454.382,237.162l2.521,56.761l2.521-99
		 M449.462,260.322l-2.521,80.76l-2.521-183.72l-2.399,43.8l-2.521-63l-2.521,51.12l-2.399,55.2l-2.521-69.479l-2.521,12.84
		l-2.521-21.24l-2.399,10.68l-2.521,84.359l-2.52-48.479l-2.4-4.56l-2.52,55.92l-2.521-18.36l-2.52-59.879l-2.4-21.72l-2.52,65.76
		l-2.521,17.521l-2.399,34.079l-2.521-99.72l-2.521,72.84l-2.521,46.8l-2.399-11.159l-2.521,22.56l-2.521-68.279l-2.399,28.8
		l-2.521-17.64l-2.521,46.92l-2.521-46.44l-2.399-6.359l-2.521,62.521l-2.521-52.201l-2.399,57.601l-2.521,14.399l-2.521-92.76
		l-2.399,53.041l-2.521-55.561l-2.521,72l-2.521,6.72l-2.399-66.601l-2.521,92.881l-2.521-117.842l-2.399,100.921l-2.521,5.761
		l-2.521,4.92l-2.521-35.521l-2.399-27l-2.521-54.959l-2.521,85.561l-2.399-113.041l-2.521,85.561l-2.52,20.52l-2.521-87.119
		l-2.4,51l-2.521-6.84l-2.52,49.8l-2.399,23.64l-2.521-139.919l-2.52,79.68l-2.52-117.96l-2.4,86.88l-2.52-95.399l-2.52,62.399
		l-2.4,7.562l-2.52,23.879l-2.52-109.439l-2.52,88.561l-2.4-61.92l-2.52,118.32l-2.52-78.961l-2.4-28.08l-2.52,71.041l-2.52,2.52
		l-2.4,5.881l-2.52-48.721l-2.52,22.801l-2.52-115.44l-2.4,63.48l-2.52,61.8l-2.52,85.08 M225.782,305.922l-2.52-216.24
		l-2.52,131.041l-2.4,40.199l-2.52-0.72l-2.52,4.198l-2.4,18.36l-2.52-77.04l-2.52,69.6l-2.52,7.682l-2.4-64.2l-2.52,5.521
		l-2.52,91.681l-2.4-79.8l-2.52-31.2l-2.52,33.601l-2.52-59.28l-2.4,30.239l-2.52-44.52l-2.52-0.72l-2.4,124.801l-2.52,23.64
		l-2.52-105.72l-2.4,34.92l-2.52,5.64l-2.52,7.801l-2.52-156.84l-2.4-35.28l-2.52,71.52l-2.52,83.761l-2.4-17.521l-2.52-20.88
		l-2.52,11.16l-2.52,104.641l-2.4-21.119l-2.52-2.281l-2.52-75.359l-2.4,48.359l-2.52,11.642l-2.52-93.121l-2.52,102.601l-2.4,25.68
		l-2.52-74.04l-2.52-55.92l-2.4,49.201l-2.52,23.521l-2.52,79.438l-2.52-72.959l-2.4-68.161l-2.52,63.959l-2.52-36.719l-2.4,65.76
		l-2.52-14.041 M89.102,229.962l-2.52-49.44l-2.52,119.041l-2.4-108l-2.52,97.44l-2.52-42.24l-2.4-26.521l-2.52,12.479l-2.52,35.521
		l-2.52-7.319l-2.4-150.601l-2.52,118.44l-2.52-71.64l-2.4,117.359l-2.52-62.879l-2.52-80.761l-2.52,89.28l-2.4-7.08l-2.52,6.72
		l-2.52-4.2l-2.4-12.6l-2.52-23.88l-2.52,22.2l-2.52-20.28l-2.4,75l-2.52-14.761"/>

		<polyline fill="none" stroke="#EF4D66" stroke-width="3" stroke-linecap="round" stroke-linejoin="round" stroke-miterlimit="10" points="
		59.222,207.402 61.742,206.563 64.262,196.122 66.662,201.882 69.182,206.682 71.702,210.402 74.222,211.723 76.622,213.882
		79.142,218.922 81.662,217.361 84.062,223.002 86.582,226.602 89.102,227.922 96.542,226.242 99.062,234.042 101.462,232.123
		103.981,241.123 106.501,234.882 108.902,232.962 111.422,238.842 113.942,239.922 116.462,237.402 118.862,228.402
		121.382,230.322 123.902,229.723 126.302,235.962 128.822,231.162 131.342,231.521 133.862,230.082 136.262,229.842
		138.782,232.361 141.302,239.563 143.702,243.521 146.222,234.643 148.742,230.682 151.262,229.962 153.662,234.042
		156.182,228.042 158.702,211.723 161.102,199.602 163.622,206.203 166.142,205.482 168.662,205.242 171.062,205.962
		173.582,208.842 176.102,209.802 178.501,200.442 181.021,198.522 183.542,200.682 185.942,199.122 188.462,200.563
		190.981,205.482 193.501,217.842 195.902,233.441 198.422,231.162 200.942,229.123 203.342,232.002 205.862,236.922
		208.382,229.242 210.902,228.882 213.302,235.962 215.822,242.802 218.342,246.402 220.742,249.402 223.262,238.842
		225.782,246.042 248.102,251.322 250.622,244.962 253.142,240.762 255.542,232.361 258.062,227.682 260.582,221.802
		263.102,224.441 265.501,221.203 268.021,219.042 270.542,212.082 272.942,207.162 275.462,210.643 277.981,215.082
		280.382,208.482 282.902,195.282 285.422,195.762 287.942,199.122 290.342,206.441 292.862,200.922 295.382,204.042
		297.782,197.322 300.302,199.482 302.82,196.242 305.342,208.002 307.742,216.042 310.262,214.842 312.781,222.643
		315.182,222.402 317.702,234.643 320.222,237.643 322.742,236.203 325.142,243.402 327.662,248.922 330.182,251.682
		332.582,262.482 335.102,267.283 337.622,277.602 340.142,277.361 342.542,271.723 345.063,277.962 347.582,277.123
		349.981,284.682 352.502,285.643 355.021,282.762 357.542,290.082 359.941,285.402 362.462,293.563 364.981,296.802
		367.382,293.922 369.901,292.242 372.422,286.482 374.821,281.563 377.342,287.203 379.861,281.082 382.382,282.762
		384.781,277.723 387.302,277.962 389.821,281.802 392.222,282.402 394.741,283.602 397.262,272.802 399.781,270.162
		402.182,269.322 404.702,263.441 407.222,257.322 409.622,252.283 412.142,248.203 414.662,248.802 417.182,244.123
		419.582,241.842 422.102,238.242 424.622,230.082 427.021,220.482 429.542,215.682 432.063,215.082 434.582,212.441
		436.981,208.242 439.502,201.643 442.021,204.282 444.422,202.242 446.941,209.082 449.462,208.723 454.382,210.762
		456.901,216.521 459.422,211.723 464.342,219.042 466.861,221.922 469.262,231.882 471.781,230.682 474.302,229.842
		476.821,227.322 479.222,227.082 481.741,225.762 484.262,224.563 486.662,219.762 489.182,210.521 491.702,201.282
		494.222,203.563 504.063,201.042 506.582,195.762 509.102,200.682 511.622,189.882 514.021,196.842 516.542,196.962
		519.063,194.802 521.462,199.242 523.981,202.723 526.502,198.282 529.021,188.202 531.422,199.842 533.941,210.643
		536.462,197.802 538.861,202.122 541.382,200.802 546.422,195.402 548.821,200.922 551.342,197.082 553.861,203.682 	"/>
	<g>
		<text transform="matrix(1 0 0 1 10 360)" fill="#333333" style="font-family:'Lato',sans-serif;font-size:9px;font-weight:400;text-anchor:end;">0</text>
		<text transform="matrix(1 0 0 1 10 320.75)" fill="#333333" style="font-family:'Lato',sans-serif;font-size:9px;font-weight:400;text-anchor:end;">500</text>
		<text transform="matrix(1 0 0 1 10 281.5)" fill="#333333" style="font-family:'Lato',sans-serif;font-size:9px;font-weight:400;text-anchor:end;">1000</text>
		<text transform="matrix(1 0 0 1 10 242.25)" fill="#333333" style="font-family:'Lato',sans-serif;font-size:9px;font-weight:400;text-anchor:end;">1500</text>
		<text transform="matrix(1 0 0 1 10 203)" fill="#333333" style="font-family:'Lato',sans-serif;font-size:9px;font-weight:400;text-anchor:end;">2000</text>
		<text transform="matrix(1 0 0 1 10 163.75)" fill="#333333" style="font-family:'Lato',sans-serif;font-size:9px;font-weight:400;text-anchor:end;">2500</text>
		<text transform="matrix(1 0 0 1 10 124.5)" fill="#333333" style="font-family:'Lato',sans-serif;font-size:9px;font-weight:400;text-anchor:end;">3000</text>
		<text transform="matrix(1 0 0 1 10 85.25)" fill="#333333" style="font-family:'Lato',sans-serif;font-size:9px;font-weight:400;text-anchor:end;">3500</text>
		<text transform="matrix(1 0 0 1 10 46)" fill="#333333" style="font-family:'Lato',sans-serif;font-size:9px;font-weight:400;text-anchor:end;">4000</text>
	</g>
	<g>
		<text transform="matrix(1 0 0 1 6 372)" fill="#333333" style="font-family:'Lato',sans-serif;font-size:9px;font-weight:400">Nov 2014</text>
		<text transform="matrix(1 0 0 1 80 372)" fill="#333333" style="font-family:'Lato',sans-serif;font-size:9px;font-weight:400">Dec 2014</text>
		<text transform="matrix(1 0 0 1 158 372)" fill="#333333" style="font-family:'Lato',sans-serif;font-size:9px;font-weight:400">Jan 2015</text>
		<text transform="matrix(1 0 0 1 234 372)" fill="#333333" style="font-family:'Lato',sans-serif;font-size:9px;font-weight:400">Feb 2015</text>
		<text transform="matrix(1 0 0 1 304 372)" fill="#333333" style="font-family:'Lato',sans-serif;font-size:9px;font-weight:400">Mar 2015</text>
		<text transform="matrix(1 0 0 1 382 372)" fill="#333333" style="font-family:'Lato',sans-serif;font-size:9px;font-weight:400">Apr 2015</text>
		<text transform="matrix(1 0 0 1 455 372)" fill="#333333" style="font-family:'Lato',sans-serif;font-size:9px;font-weight:400">May 2015</text>
		<text transform="matrix(1 0 0 1 534 372)" fill="#333333" style="font-family:'Lato',sans-serif;font-size:9px;font-weight:400">Jun 2015</text>
	</g>
	<text transform="matrix(1 0 0 1 100 24)" fill="#333333" style="font-family:'Lato',sans-serif;font-size:16px;font-weight:400">Caloriess Consumed, November 2014 to June 2015</text>
	<g>
		<rect x="226" y="37" fill="#dddddd" width="22" height="320"/>
		<rect x="89" y="37" fill="#dddddd" width="8" height="320"/>
		<rect x="449" y="37" fill="#dddddd" width="5" height="320"/>
		<rect x="494" y="37" fill="#dddddd" width="10" height="320"/>
		<rect x="541" y="37" fill="#dddddd" width="5" height="320"/>
		<rect x="459.5" y="37" fill="#dddddd" width="5" height="320"/>
	</g>
	<g>

			<line fill="none" stroke="#CCCCCC" stroke-width="2" stroke-linecap="square" stroke-miterlimit="10" x1="300" y1="53" x2="382" y2="53"/>

			<line fill="none" stroke="#CCCCCC" stroke-width="2" stroke-linecap="square" stroke-miterlimit="10" x1="300" y1="53" x2="300" y2="58"/>

			<line fill="none" stroke="#CCCCCC" stroke-width="2" stroke-linecap="square" stroke-miterlimit="10" x1="382" y1="53" x2="382" y2="58"/>
		<text transform="matrix(1 0 0 1 308 47)" fill="#333333" style="font-family:'Lato',sans-serif;font-size:12px;font-weight:400">Diverticulitis</text>
	</g>
	<g>

			<line fill="none" stroke="#FCC394" stroke-width="2" stroke-linecap="round" stroke-linejoin="round" stroke-miterlimit="10" x1="27" y1="390" x2="46" y2="390"/>
		<text transform="matrix(1 0 0 1 50 393)" fill="#333333" style="font-family:'Lato',sans-serif;font-size:10px;font-weight:400">Calories</text>

			<line fill="none" stroke="#EF4D66" stroke-width="3" stroke-linecap="round" stroke-linejoin="round" stroke-miterlimit="10" x1="127" y1="390" x2="146" y2="390"/>
		<text transform="matrix(1 0 0 1 152 393)" fill="#333333" style="font-family:'Lato',sans-serif;font-size:10px;font-weight:400">Calories 14 Day Moving Average</text>

			<line fill="none" stroke="#817CB7" stroke-width="3" stroke-linecap="round" stroke-linejoin="round" stroke-miterlimit="10" x1="344" y1="390" x2="363" y2="390"/>
		<text transform="matrix(1 0 0 1 369 393)" fill="#333333" style="font-family:'Lato',sans-serif;font-size:10px;font-weight:400">Weight (lbs)</text>
		<text transform="matrix(1 0 0 1 496 393)" fill="#333333" style="font-family:'Lato',sans-serif;font-size:10px;font-weight:400">Gaps in Data</text>
		<rect x="481" y="384" fill="#dddddd" width="10" height="10"/>
	</g>
	<g>

			<line fill="none" stroke="#CCCCCC" stroke-width="2" stroke-linecap="square" stroke-linejoin="round" stroke-miterlimit="10" x1="26" y1="356" x2="556" y2="356"/>
		<path fill="none" stroke="#CCCCCC" stroke-width="2" stroke-linecap="square" stroke-linejoin="round" stroke-miterlimit="10" d="
			M26,356v4 M100,356v4 M177,356v4 M254,356v4 M324,356v4 M401,356v4 M476,356v4 M553,356v4"/>
	</g>
</g>
<g id="Layer_3">

		<polyline fill="none" stroke="#817CB7" stroke-width="3" stroke-linecap="round" stroke-linejoin="round" stroke-miterlimit="10" points="
		26.229,139.092 28.688,142.659 31.146,133.743 33.605,146.226 36.064,140.875 38.658,144.442 41.117,128.393 43.575,146.226
		46.034,131.959 48.493,133.743 50.951,157.062 53.546,162.411 56.005,153.495 58.463,153.495 60.921,151.712 63.38,130.176
		65.976,137.31 68.435,155.279 70.892,176.678 73.351,176.678 75.81,164.195 78.405,173.111 80.863,173.111 83.322,162.411
		85.78,173.111 88.239,167.762 90.698,164.195 93.292,144.442 95.751,139.092 98.209,133.743 100.667,131.959 103.127,149.929
		105.722,146.226 108.18,137.31 110.638,153.495 113.097,157.062 115.556,148.008 118.151,149.929 120.609,144.442 123.068,139.092
		125.526,139.092 127.985,139.092 130.444,149.929 133.038,157.062 135.497,157.062 137.956,157.062 140.414,149.929
		142.873,142.659 145.467,139.092 147.926,130.176 150.385,125.375 152.843,120.711 155.301,115.91 157.896,111.11 160.355,106.446
		162.814,101.508 165.272,108.641 167.73,130.176 170.189,132.646 172.785,134.977 175.243,137.31 177.702,139.092 180.16,142.659
		182.619,121.259 185.214,117.694 187.672,110.424 190.131,108.641 192.589,112.206 195.047,111.383 197.643,110.424
		200.101,110.424 202.56,106.857 205.018,94.375 207.477,117.694 209.936,108.641 212.53,128.393 214.989,137.31 217.448,127.433
		219.906,117.694 222.364,113.99 224.96,121.259 227.418,119.477 229.877,114.95 232.335,110.424 234.794,110.424 237.389,110.424
		239.847,115.772 242.306,108.641 244.765,97.941 247.223,87.241 249.682,103.291 252.276,103.291 254.735,106.857 257.194,108.641
		259.652,109.601 262.11,110.424 264.706,119.477 267.165,110.561 269.624,101.508 272.082,98.764 274.541,96.158 277.135,97.941
		279.593,99.724 282.053,101.508 284.512,96.158 286.97,76.405 289.564,63.922 292.023,90.808 294.481,106.857 296.941,94.375
		299.398,97.941 301.858,94.375 304.452,90.808 306.91,96.158 309.37,113.99 311.828,133.743 314.288,120.437 316.881,106.857
		319.34,121.259 321.799,121.259 324.256,119.477 326.716,135.526 329.312,142.659 331.769,146.226 334.228,149.929
		336.688,176.678 339.146,165.979 341.604,185.731 344.198,174.895 346.657,180.93 349.116,186.965 351.572,192.864
		354.032,191.081 356.627,195.608 359.086,199.998 361.545,196.431 364.003,202.74 366.462,208.913 369.057,201.78 371.515,216.184
		373.975,201.78 376.431,208.913 378.89,216.184 381.349,217.967 383.944,219.749 386.402,221.533 388.861,223.315 391.32,225.1
		393.779,219.749 396.374,219.749 398.831,221.533 401.29,226.883 403.748,225.1 406.207,221.121 408.803,217.007 411.26,213.028
		413.72,208.913 416.178,226.883 418.637,212.617 421.096,212.617 423.689,212.617 426.148,216.184 428.606,216.184 431.065,225.1
		433.523,208.913 436.119,208.228 438.577,207.13 441.037,199.998 443.495,199.174 445.954,198.214 448.548,199.998
		451.006,212.617 453.466,230.449 455.924,219.749 458.383,208.913 460.841,206.307 463.437,203.563 465.895,200.957
		468.354,198.214 470.813,199.998 473.271,202.74 475.864,205.347 478.323,207.13 480.782,191.081 483.241,190.12 485.699,189.023
		488.294,187.925 490.754,186.828 493.212,185.731 495.67,201.78 498.13,199.038 500.588,196.293 503.182,193.55 505.641,190.669
		508.1,187.788 510.558,185.046 513.016,182.165 515.61,179.421 518.07,176.678 520.528,174.071 522.987,171.328 525.446,180.382
		528.039,162.411 530.499,157.062 532.957,165.155 535.416,173.111 537.875,170.779 540.333,168.447 542.928,167.899
		545.388,165.979 547.846,157.062 550.305,178.461 552.764,174.895 	"/>
	<g>
		<text transform="matrix(1 0 0 1 578 360)" fill="#333333" style="font-family:'Lato',sans-serif;font-size:9px;font-weight:400">150</text>
		<text transform="matrix(1 0 0 1 578 315)" fill="#333333" style="font-family:'Lato',sans-serif;font-size:9px;font-weight:400">155</text>
		<text transform="matrix(1 0 0 1 578 270)" fill="#333333" style="font-family:'Lato',sans-serif;font-size:9px;font-weight:400">160</text>
		<text transform="matrix(1 0 0 1 578 225)" fill="#333333" style="font-family:'Lato',sans-serif;font-size:9px;font-weight:400">165</text>
		<text transform="matrix(1 0 0 1 578 181)" fill="#333333" style="font-family:'Lato',sans-serif;font-size:9px;font-weight:400">170</text>
		<text transform="matrix(1 0 0 1 578 136)" fill="#333333" style="font-family:'Lato',sans-serif;font-size:9px;font-weight:400">175</text>
		<text transform="matrix(1 0 0 1 578 91)" fill="#333333" style="font-family:'Lato',sans-serif;font-size:9px;font-weight:400">180</text>
		<text transform="matrix(1 0 0 1 578 46)" fill="#333333" style="font-family:'Lato',sans-serif;font-size:9px;font-weight:400">185</text>
	</g>
	<text transform="matrix(0 -1 1 0 -28 251)" style="font-family:'Lato',sans-serif;font-size:12px;font-weight:400">Calories Consumed</text>
	<text transform="matrix(0 1 -1 0 608 153)" style="font-family:'Lato',sans-serif;font-size:12px;font-weight:400">Weight in Pounds</text>
</g>
</svg>
